<mxfile host="app.diagrams.net" modified="2023-06-15T14:06:01.426Z" agent="Mozilla/5.0 (Windows NT 10.0; Win64; x64) AppleWebKit/537.36 (KHTML, like Gecko) Chrome/114.0.0.0 Safari/537.36" version="21.4.0" etag="MmdO5APByxwwK7g5Tnq-" type="github">
  <diagram name="페이지-1" id="zzmuA26dCFQAWkQ7VBDZ">
    <mxGraphModel>
      <root>
        <mxCell id="0" />
        <mxCell id="1" parent="0" />
      </root>
    </mxGraphModel>
  </diagram>
</mxfile>
